<svg width="720" height="254" viewBox="0 0 720 254" fill="none" xmlns="http://www.w3.org/2000/svg">
<rect width="4.26035" height="19.05" transform="matrix(-1 0 0 1 234.32 0)" fill="#00CCA8"/>
<rect width="2.13018" height="71.9666" transform="matrix(-1 0 0 1 720 63.5001)" fill="#00CCA8"/>
<rect width="720" height="118.533" transform="matrix(-1 0 0 1 720 135.466)" fill="#00CCA8"/>
<rect width="6.39053" height="55.0333" transform="matrix(-1 0 0 1 717.87 80.4331)" fill="#00CCA8"/>
<rect width="2.13018" height="31.75" transform="matrix(-1 0 0 1 711.479 105.833)" fill="#00CCA8"/>
<rect width="4.26035" height="19.05" transform="matrix(-1 0 0 1 709.35 118.533)" fill="#00CCA8"/>
<rect width="2.13018" height="16.9333" transform="matrix(-1 0 0 1 705.089 118.533)" fill="#00CCA8"/>
<rect width="4.26035" height="27.5167" transform="matrix(-1 0 0 1 702.958 107.95)" fill="#00CCA8"/>
<rect width="2.13018" height="80.4333" transform="matrix(-1 0 0 1 698.698 55.0331)" fill="#00CCA8"/>
<rect width="2.13018" height="82.55" transform="matrix(-1 0 0 1 696.568 52.9166)" fill="#00CCA8"/>
<rect width="2.13018" height="84.6667" transform="matrix(-1 0 0 1 694.437 50.7997)" fill="#00CCA8"/>
<rect width="2.13018" height="91.0167" transform="matrix(-1 0 0 1 685.917 44.45)" fill="#00CCA8"/>
<rect width="2.13018" height="84.6667" transform="matrix(-1 0 0 1 681.657 50.7997)" fill="#00CCA8"/>
<rect width="2.13018" height="82.55" transform="matrix(-1 0 0 1 679.527 52.9166)" fill="#00CCA8"/>
<rect width="2.13018" height="80.4333" transform="matrix(-1 0 0 1 677.397 55.0331)" fill="#00CCA8"/>
<rect width="2.13018" height="88.9" transform="matrix(-1 0 0 1 683.787 46.5664)" fill="#00CCA8"/>
<rect width="2.13018" height="93.1333" transform="matrix(-1 0 0 1 688.047 42.3335)" fill="#00CCA8"/>
<rect width="2.13018" height="91.0167" transform="matrix(-1 0 0 1 690.177 44.45)" fill="#00CCA8"/>
<rect width="2.13018" height="88.9" transform="matrix(-1 0 0 1 692.308 46.5664)" fill="#00CCA8"/>
<rect width="2.13018" height="59.2667" transform="matrix(-1 0 0 1 675.266 76.2001)" fill="#00CCA8"/>
<rect width="2.13018" height="61.3833" transform="matrix(-1 0 0 1 673.136 74.0836)" fill="#00CCA8"/>
<rect width="2.13018" height="63.5" transform="matrix(-1 0 0 1 671.006 71.9664)" fill="#00CCA8"/>
<rect width="2.13018" height="63.5" transform="matrix(-1 0 0 1 662.485 71.9664)" fill="#00CCA8"/>
<rect width="2.13018" height="61.3833" transform="matrix(-1 0 0 1 660.355 74.0836)" fill="#00CCA8"/>
<rect width="2.13018" height="65.6167" transform="matrix(-1 0 0 1 664.616 69.8502)" fill="#00CCA8"/>
<rect width="2.13018" height="65.6167" transform="matrix(-1 0 0 1 666.745 69.8502)" fill="#00CCA8"/>
<rect width="2.13018" height="65.6167" transform="matrix(-1 0 0 1 668.876 69.8502)" fill="#00CCA8"/>
<rect width="8.52071" height="38.1" transform="matrix(-1 0 0 1 658.224 97.3667)" fill="#00CCA8"/>
<rect width="2.13018" height="114.3" transform="matrix(-1 0 0 1 649.704 21.1665)" fill="#00CCA8"/>
<rect width="2.13018" height="116.417" transform="matrix(-1 0 0 1 647.574 19.049)" fill="#00CCA8"/>
<rect width="2.13018" height="116.417" transform="matrix(-1 0 0 1 641.184 19.049)" fill="#00CCA8"/>
<rect width="2.13018" height="114.3" transform="matrix(-1 0 0 1 639.053 21.1665)" fill="#00CCA8"/>
<rect width="2.13018" height="91.0167" transform="matrix(-1 0 0 1 636.923 44.45)" fill="#00CCA8"/>
<rect width="2.13018" height="88.9" transform="matrix(-1 0 0 1 632.663 46.5664)" fill="#00CCA8"/>
<rect width="2.13018" height="71.9666" transform="matrix(-1 0 0 1 630.532 63.5001)" fill="#00CCA8"/>
<rect width="2.13018" height="74.0833" transform="matrix(-1 0 0 1 626.272 61.3832)" fill="#00CCA8"/>
<rect width="2.13018" height="74.0833" transform="matrix(-1 0 0 1 624.142 61.3832)" fill="#00CCA8"/>
<rect width="2.13018" height="74.0833" transform="matrix(-1 0 0 1 622.012 61.3832)" fill="#00CCA8"/>
<rect width="2.13018" height="74.0833" transform="matrix(-1 0 0 1 619.882 61.3832)" fill="#00CCA8"/>
<rect width="2.13018" height="74.0833" transform="matrix(-1 0 0 1 617.751 61.3832)" fill="#00CCA8"/>
<rect width="2.13018" height="55.0333" transform="matrix(-1 0 0 1 615.621 80.4331)" fill="#00CCA8"/>
<rect width="2.13018" height="50.8" transform="matrix(-1 0 0 1 613.491 84.6667)" fill="#00CCA8"/>
<rect width="2.13018" height="46.5667" transform="matrix(-1 0 0 1 611.361 88.8999)" fill="#00CCA8"/>
<rect width="2.13018" height="46.5667" transform="matrix(-1 0 0 1 609.231 88.8999)" fill="#00CCA8"/>
<rect width="2.13018" height="46.5667" transform="matrix(-1 0 0 1 607.1 88.8999)" fill="#00CCA8"/>
<rect width="2.13018" height="61.3833" transform="matrix(-1 0 0 1 604.971 74.0836)" fill="#00CCA8"/>
<rect width="2.13018" height="61.3833" transform="matrix(-1 0 0 1 602.84 74.0836)" fill="#00CCA8"/>
<rect width="2.13018" height="67.7333" transform="matrix(-1 0 0 1 600.71 67.7333)" fill="#00CCA8"/>
<rect width="2.13018" height="78.3167" transform="matrix(-1 0 0 1 598.58 57.15)" fill="#00CCA8"/>
<rect width="2.13018" height="78.3167" transform="matrix(-1 0 0 1 596.45 57.15)" fill="#00CCA8"/>
<rect width="2.13018" height="78.3167" transform="matrix(-1 0 0 1 594.319 57.15)" fill="#00CCA8"/>
<rect width="2.13018" height="78.3167" transform="matrix(-1 0 0 1 592.19 57.15)" fill="#00CCA8"/>
<rect width="2.13018" height="78.3167" transform="matrix(-1 0 0 1 590.059 57.15)" fill="#00CCA8"/>
<rect width="2.13018" height="78.3167" transform="matrix(-1 0 0 1 587.929 57.15)" fill="#00CCA8"/>
<rect width="2.13018" height="78.3167" transform="matrix(-1 0 0 1 585.799 57.15)" fill="#00CCA8"/>
<rect width="2.13018" height="78.3167" transform="matrix(-1 0 0 1 583.669 57.15)" fill="#00CCA8"/>
<rect width="2.13018" height="76.2" transform="matrix(-1 0 0 1 581.538 59.2665)" fill="#00CCA8"/>
<rect width="2.13018" height="74.0833" transform="matrix(-1 0 0 1 579.408 61.3832)" fill="#00CCA8"/>
<rect width="2.13018" height="69.85" transform="matrix(-1 0 0 1 577.278 65.6171)" fill="#00CCA8"/>
<rect width="2.13018" height="88.9" transform="matrix(-1 0 0 1 570.887 46.5664)" fill="#00CCA8"/>
<rect width="2.13018" height="88.9" transform="matrix(-1 0 0 1 568.758 46.5664)" fill="#00CCA8"/>
<rect width="2.13018" height="88.9" transform="matrix(-1 0 0 1 549.586 46.5664)" fill="#00CCA8"/>
<rect width="2.13018" height="91.0167" transform="matrix(-1 0 0 1 566.627 44.45)" fill="#00CCA8"/>
<rect width="17.0414" height="91.0167" transform="matrix(-1 0 0 1 566.627 44.45)" fill="#00CCA8"/>
<rect width="4.26035" height="55.0333" transform="matrix(-1 0 0 1 575.148 80.4331)" fill="#00CCA8"/>
<rect width="4.26035" height="55.0333" transform="matrix(-1 0 0 1 575.148 80.4331)" fill="#00CCA8"/>
<rect width="2.13018" height="71.9666" transform="matrix(-1 0 0 1 628.403 63.5001)" fill="#00CCA8"/>
<rect width="2.13018" height="91.0167" transform="matrix(-1 0 0 1 634.793 44.45)" fill="#00CCA8"/>
<rect width="2.13018" height="116.417" transform="matrix(-1 0 0 1 643.313 19.049)" fill="#00CCA8"/>
<rect width="2.13018" height="116.417" transform="matrix(-1 0 0 1 645.444 19.049)" fill="#00CCA8"/>
<rect width="4.26035" height="31.75" transform="matrix(-1 0 0 1 547.456 103.717)" fill="#00CCA8"/>
<rect width="2.13018" height="76.2" transform="matrix(-1 0 0 1 543.196 59.2665)" fill="#00CCA8"/>
<rect width="2.13018" height="76.2" transform="matrix(-1 0 0 1 521.893 59.2665)" fill="#00CCA8"/>
<rect width="19.1716" height="78.3167" transform="matrix(-1 0 0 1 541.065 57.15)" fill="#00CCA8"/>
<rect width="6.39053" height="55.0333" transform="matrix(-1 0 0 1 519.764 80.4331)" fill="#00CCA8"/>
<rect width="10.6509" height="101.6" transform="matrix(-1 0 0 1 513.373 35.9832)" fill="#00CCA8"/>
<rect width="8.52071" height="112.183" transform="matrix(-1 0 0 1 502.722 23.2832)" fill="#00CCA8"/>
<rect width="10.6509" height="118.533" transform="matrix(-1 0 0 1 494.201 16.9335)" fill="#00CCA8"/>
<rect width="17.0414" height="71.9666" transform="matrix(-1 0 0 1 483.55 63.5001)" fill="#00CCA8"/>
<path d="M466.509 95.2499L430.296 67.7333V135.467H466.509V95.2499Z" fill="#00CCA8"/>
<path d="M430.296 95.2499L408.994 67.7333V135.467H430.296V95.2499Z" fill="#00CCA8"/>
<path d="M357.87 85.2809L377.042 71.9664V135.466H357.87V85.2809Z" fill="#00CCA8"/>
<rect width="14.9112" height="57.15" transform="matrix(-1 0 0 1 408.994 78.3168)" fill="#00CCA8"/>
<rect width="17.0414" height="38.1" transform="matrix(-1 0 0 1 394.083 97.3667)" fill="#00CCA8"/>
<rect width="2.13018" height="29.6333" transform="matrix(-1 0 0 1 357.87 105.833)" fill="#00CCA8"/>
<rect width="4.26035" height="71.9666" transform="matrix(-1 0 0 1 355.74 63.5001)" fill="#00CCA8"/>
<rect width="4.26035" height="76.2" transform="matrix(-1 0 0 1 347.219 59.2665)" fill="#00CCA8"/>
<rect width="4.26035" height="76.2" transform="matrix(-1 0 0 1 342.958 59.2665)" fill="#00CCA8"/>
<rect width="4.26035" height="71.9666" transform="matrix(-1 0 0 1 338.698 63.5001)" fill="#00CCA8"/>
<rect width="6.39053" height="71.9666" transform="matrix(-1 0 0 1 334.438 63.5001)" fill="#00CCA8"/>
<rect width="8.52071" height="55.0333" transform="matrix(-1 0 0 1 328.047 80.4331)" fill="#00CCA8"/>
<rect width="2.13018" height="101.6" transform="matrix(-1 0 0 1 351.479 33.8669)" fill="#00CCA8"/>
<rect width="2.13018" height="101.6" transform="matrix(-1 0 0 1 349.35 33.8669)" fill="#00CCA8"/>
<rect width="10.6509" height="16.9333" transform="matrix(-1 0 0 1 319.527 118.533)" fill="#00CCA8"/>
<rect width="6.39053" height="25.4" transform="matrix(-1 0 0 1 308.876 110.067)" fill="#00CCA8"/>
<rect width="2.13018" height="84.6667" transform="matrix(-1 0 0 1 300.355 50.7997)" fill="#00CCA8"/>
<rect width="2.13018" height="86.7833" transform="matrix(-1 0 0 1 298.225 48.6835)" fill="#00CCA8"/>
<rect width="2.13018" height="88.9" transform="matrix(-1 0 0 1 296.095 46.5664)" fill="#00CCA8"/>
<rect width="2.13018" height="95.25" transform="matrix(-1 0 0 1 287.574 40.2166)" fill="#00CCA8"/>
<rect width="2.13018" height="88.9" transform="matrix(-1 0 0 1 283.313 46.5664)" fill="#00CCA8"/>
<rect width="2.13018" height="86.7833" transform="matrix(-1 0 0 1 281.184 48.6835)" fill="#00CCA8"/>
<rect width="2.13018" height="84.6667" transform="matrix(-1 0 0 1 279.053 50.7997)" fill="#00CCA8"/>
<rect width="2.13018" height="93.1333" transform="matrix(-1 0 0 1 285.444 42.3335)" fill="#00CCA8"/>
<rect width="2.13018" height="97.3667" transform="matrix(-1 0 0 1 289.705 38.1001)" fill="#00CCA8"/>
<rect width="2.13018" height="95.25" transform="matrix(-1 0 0 1 291.834 40.2166)" fill="#00CCA8"/>
<rect width="2.13018" height="93.1333" transform="matrix(-1 0 0 1 293.965 42.3335)" fill="#00CCA8"/>
<rect width="2.13018" height="78.3167" transform="matrix(-1 0 0 1 302.485 57.15)" fill="#00CCA8"/>
<rect width="2.13018" height="78.3167" transform="matrix(-1 0 0 1 276.923 57.15)" fill="#00CCA8"/>
<rect width="2.13018" height="78.3167" transform="matrix(-1 0 0 1 274.793 57.15)" fill="#00CCA8"/>
<rect width="2.13018" height="61.3833" transform="matrix(-1 0 0 1 272.663 74.0836)" fill="#00CCA8"/>
<path d="M270.533 74.0833L257.752 67.7333V135.467H270.533V74.0833Z" fill="#00CCA8"/>
<rect width="8.52071" height="61.3833" transform="matrix(-1 0 0 1 257.752 74.0836)" fill="#00CCA8"/>
<rect width="8.52071" height="38.1" transform="matrix(-1 0 0 1 249.231 97.3667)" fill="#00CCA8"/>
<rect width="17.0414" height="116.417" transform="matrix(-1 0 0 1 240.71 19.049)" fill="#00CCA8"/>
<rect width="6.39053" height="97.3667" transform="matrix(-1 0 0 1 223.669 38.1001)" fill="#00CCA8"/>
<rect width="2.13018" height="88.9" transform="matrix(-1 0 0 1 217.278 46.5664)" fill="#00CCA8"/>
<rect width="17.0414" height="76.2" transform="matrix(-1 0 0 1 215.148 59.2665)" fill="#00CCA8"/>
<rect width="2.13018" height="71.9666" transform="matrix(-1 0 0 1 198.107 63.5001)" fill="#00CCA8"/>
<rect width="6.39053" height="52.9167" transform="matrix(-1 0 0 1 195.977 82.55)" fill="#00CCA8"/>
<rect width="6.39053" height="44.45" transform="matrix(-1 0 0 1 189.586 91.0166)" fill="#00CCA8"/>
<path d="M183.195 74.5537L170.414 57.15V135.467H183.195V74.5537Z" fill="#00CCA8"/>
<rect width="23.4319" height="78.3167" transform="matrix(-1 0 0 1 170.414 57.15)" fill="#00CCA8"/>
<rect width="2.13018" height="74.0833" transform="matrix(-1 0 0 1 146.982 61.3832)" fill="#00CCA8"/>
<rect width="6.39053" height="55.0333" transform="matrix(-1 0 0 1 144.852 80.4331)" fill="#00CCA8"/>
<rect width="29.8225" height="88.9" transform="matrix(-1 0 0 1 138.462 46.5664)" fill="#00CCA8"/>
<rect width="6.39053" height="35.9833" transform="matrix(-1 0 0 1 108.639 99.4834)" fill="#00CCA8"/>
<rect width="29.8225" height="78.3167" transform="matrix(-1 0 0 1 102.248 57.15)" fill="#00CCA8"/>
<rect width="2.13018" height="55.0333" transform="matrix(-1 0 0 1 72.4265 80.4331)" fill="#00CCA8"/>
<rect width="6.39053" height="52.9167" transform="matrix(-1 0 0 1 70.2954 82.55)" fill="#00CCA8"/>
<rect width="10.6509" height="99.4833" transform="matrix(-1 0 0 1 63.9055 35.9832)" fill="#00CCA8"/>
<rect width="14.9112" height="110.067" transform="matrix(-1 0 0 1 53.2549 25.3999)" fill="#00CCA8"/>
<rect width="14.9112" height="118.533" transform="matrix(-1 0 0 1 38.3433 16.9335)" fill="#00CCA8"/>
<rect width="17.0414" height="71.9666" transform="matrix(-1 0 0 1 23.4319 63.5001)" fill="#00CCA8"/>
<rect width="6.39053" height="40.2167" transform="matrix(-1 0 0 1 6.39062 95.2498)" fill="#00CCA8"/>
</svg>
