<svg width="720" height="254" viewBox="0 0 720 254" fill="none" xmlns="http://www.w3.org/2000/svg">
<rect x="17.3914" y="112.889" width="31.3043" height="86.4305" fill="#00705E"/>
<rect y="199.319" width="486.957" height="54.6805" fill="#00705E"/>
<rect x="1.73907" y="171.097" width="15.6522" height="28.2222" fill="#00705E"/>
<rect x="48.6957" y="31.7501" width="19.1304" height="167.569" fill="#00705E"/>
<rect x="67.8261" y="49.389" width="19.1304" height="149.931" fill="#00705E"/>
<rect x="86.9565" y="65.2639" width="19.1304" height="134.056" fill="#00705E"/>
<rect x="106.087" y="144.639" width="13.913" height="54.6805" fill="#00705E"/>
<rect x="120" y="109.361" width="6.95652" height="89.9583" fill="#00705E"/>
<rect x="126.957" y="104.069" width="36.5217" height="95.25" fill="#00705E"/>
<rect x="163.478" y="109.361" width="3.47826" height="89.9583" fill="#00705E"/>
<rect x="166.956" y="188.736" width="10.4348" height="10.5833" fill="#00705E"/>
<rect x="177.391" y="84.6666" width="5.21739" height="114.653" fill="#00705E"/>
<rect x="219.13" y="84.6666" width="3.47826" height="114.653" fill="#00705E"/>
<rect x="222.609" y="144.639" width="12.1739" height="54.6805" fill="#00705E"/>
<rect x="234.783" y="109.361" width="5.21739" height="89.9583" fill="#00705E"/>
<rect x="240" y="104.069" width="36.5217" height="95.25" fill="#00705E"/>
<rect x="276.522" y="109.361" width="1.73913" height="89.9583" fill="#00705E"/>
<rect x="278.261" y="123.472" width="1.73913" height="75.8472" fill="#00705E"/>
<rect x="280" y="128.764" width="1.73913" height="70.5555" fill="#00705E"/>
<rect x="281.739" y="130.528" width="1.73913" height="68.7916" fill="#00705E"/>
<rect x="283.478" y="132.291" width="3.47826" height="67.0278" fill="#00705E"/>
<rect x="286.957" y="134.055" width="1.73913" height="65.2639" fill="#00705E"/>
<rect x="288.696" y="135.819" width="1.73913" height="63.5" fill="#00705E"/>
<rect x="290.435" y="162.278" width="15.6522" height="37.0417" fill="#00705E"/>
<rect x="306.087" y="149.931" width="8.69565" height="49.3889" fill="#00705E"/>
<rect x="314.783" y="109.361" width="26.087" height="89.9583" fill="#00705E"/>
<rect x="340.87" y="84.6666" width="5.21739" height="114.653" fill="#00705E"/>
<rect x="346.087" y="81.1388" width="3.47826" height="118.181" fill="#00705E"/>
<rect x="349.565" y="74.0833" width="5.21739" height="125.236" fill="#00705E"/>
<rect x="354.783" y="37.0416" width="26.087" height="162.278" fill="#00705E"/>
<rect x="380.87" y="176.389" width="15.6522" height="22.9305" fill="#00705E"/>
<path d="M396.522 128.764L405.217 132.292V199.319H396.522V128.764Z" fill="#00705E"/>
<path d="M405.218 119.944L413.913 123.913V199.319H405.218V119.944Z" fill="#00705E"/>
<path d="M413.913 128.764L422.609 132.292V199.319H413.913V128.764Z" fill="#00705E"/>
<path d="M422.609 132.291H431.304V199.319H422.609V132.291Z" fill="#00705E"/>
<path d="M431.304 104.069H433.043V199.319H431.304V104.069Z" fill="#00705E"/>
<path d="M433.043 102.305H434.783V199.319H433.043V102.305Z" fill="#00705E"/>
<path d="M434.783 100.542H438.261V199.319H434.783V100.542Z" fill="#00705E"/>
<path d="M438.261 95.25H440V199.319H438.261V95.25Z" fill="#00705E"/>
<path d="M440 91.7222H441.739V199.319H440V91.7222Z" fill="#00705E"/>
<path d="M441.739 86.4307H443.478V199.32H441.739V86.4307Z" fill="#00705E"/>
<path d="M443.478 82.9031H445.217V199.32H443.478V82.9031Z" fill="#00705E"/>
<path d="M445.217 77.6111H448.696V199.319H445.217V77.6111Z" fill="#00705E"/>
<path d="M448.696 74.0833H450.435V199.319H448.696V74.0833Z" fill="#00705E"/>
<path d="M473.043 104.069H471.304V199.319H473.043V104.069Z" fill="#00705E"/>
<path d="M471.305 102.305H469.565V199.319H471.305V102.305Z" fill="#00705E"/>
<path d="M469.565 100.542H467.826V199.319H469.565V100.542Z" fill="#00705E"/>
<path d="M467.826 95.25H464.348V199.319H467.826V95.25Z" fill="#00705E"/>
<path d="M464.348 91.7222H462.609V199.319H464.348V91.7222Z" fill="#00705E"/>
<path d="M462.609 86.4307H460.87V199.32H462.609V86.4307Z" fill="#00705E"/>
<path d="M460.87 82.9031H459.13V199.32H460.87V82.9031Z" fill="#00705E"/>
<path d="M459.13 77.6111H457.391V199.319H459.13V77.6111Z" fill="#00705E"/>
<path d="M457.391 74.0833H453.913V199.319H457.391V74.0833Z" fill="#00705E"/>
<path d="M450.435 70.5555H452.174V199.319H450.435V70.5555Z" fill="#00705E"/>
<path d="M452.174 70.5555H453.913V199.319H452.174V70.5555Z" fill="#00705E"/>
<rect x="182.609" y="81.1388" width="36.5217" height="118.181" fill="#00705E"/>
<rect x="8.69568" y="164.042" width="1.73913" height="7.05555" fill="#00705E"/>
<rect x="366.957" width="1.73913" height="37.0417" fill="#00705E"/>
<rect x="368.696" y="26.4583" width="1.73913" height="10.5833" fill="#00705E"/>
<rect x="473.043" y="105.833" width="3.47826" height="93.4861" fill="#00705E"/>
<rect x="476.522" y="195.792" width="1.73913" height="3.52778" fill="#00705E"/>
<rect x="478.261" y="197.555" width="8.69565" height="1.76328" fill="#00705E"/>
<rect x="486.957" y="202.847" width="1.73913" height="14.1111" fill="#00705E"/>
<rect x="488.696" y="209.903" width="10.4348" height="7.05555" fill="#00705E"/>
<rect x="499.13" y="208.139" width="5.21739" height="8.81944" fill="#00705E"/>
<rect x="486.957" y="216.958" width="17.3913" height="37.0417" fill="#00705E"/>
<rect x="504.348" y="142.875" width="52.1739" height="111.125" fill="#00705E"/>
<rect x="528.696" y="104.069" width="24.3478" height="38.8055" fill="#00705E"/>
<path d="M553.044 104.069L556.522 114.849V142.875H553.044V104.069Z" fill="#00705E"/>
<rect x="516.522" y="112.889" width="12.1739" height="29.9861" fill="#00705E"/>
<rect x="547.826" y="58.2083" width="3.47826" height="45.8611" fill="#00705E"/>
<rect x="546.087" y="82.9031" width="1.73913" height="21.1667" fill="#00705E"/>
<rect x="556.522" y="188.736" width="5.21739" height="65.2639" fill="#00705E"/>
<path d="M561.739 154.91L593.043 132.291V254H561.739V154.91Z" fill="#00705E"/>
<rect x="593.043" y="176.389" width="31.3043" height="77.6111" fill="#00705E"/>
<rect x="624.348" y="142.875" width="19.1304" height="111.125" fill="#00705E"/>
<path d="M643.478 123.472L674.783 149.15V254H643.478V123.472Z" fill="#00705E"/>
<path d="M674.783 123.472L720 160.919V254H674.783V123.472Z" fill="#00705E"/>
</svg>
