<svg width="720" height="254" viewBox="0 0 720 254" fill="none" xmlns="http://www.w3.org/2000/svg">
<path fill-rule="evenodd" clip-rule="evenodd" d="M368.696 0H366.957V37.0417L354.783 37.0416L354.783 74.0833H349.565L349.565 81.1388H346.087L346.087 84.6666H340.87L340.87 109.361H314.783L314.782 149.931H306.087V162H289V136H287V134H285V132H283.478V130.528H282V128H280V123.472H278.261L278.261 109.361H277V104H240V109H233V144.639H223V85H219V81H183V85H178V189H177.391V188.736H170V109H163.478V104.069H126.956V109H120V148H112V66H92V49H72V32H51V115H18V174H11V167H9V174H2V189H0V254H487H504H557L561.739 254L591 254H629L643.478 254L674.782 254H720V160.919L674.782 123.472V149.15L643.478 123.472L643.478 142.875H624.348V176H593.043V132.291L561.739 154.91L561.739 188.736H557V143V141V114.833L553 104H551.304V58.2083H547.826V104L547.826 82.9031H546.087V104H528V112.889H516.522V141H504V208H499V209.903H490V203H487V189H477V106H473V104H471V102H470V101H468V95H464V92H463V86H460V83H458V78H456V74H453V71H451H449V74H448V78H444V83H443V86H441V92H439V95H437V101H434V102H432V104H430V132H421V132.5L413.913 129.744V123.913L405.218 119.944L405.217 132.292L396.522 128.764L396.522 176.389H380.87L380.87 37.0416L370.435 37.0416V26.4583H368.696V0Z" fill="#00705E"/>
</svg>
