<svg width="48" height="49" viewBox="0 0 48 49" fill="none" xmlns="http://www.w3.org/2000/svg">
<circle cx="24" cy="24.5" r="24" fill="#A8F6E3"/>
<path d="M33.1429 34.7856V32.4999C33.1429 31.2875 32.6613 30.1247 31.8039 29.2674C30.9466 28.4101 29.7839 27.9285 28.5715 27.9285H19.4286C18.2162 27.9285 17.0534 28.4101 16.1961 29.2674C15.3388 30.1247 14.8572 31.2875 14.8572 32.4999V34.7856" stroke="#00A588" stroke-width="3" stroke-linecap="round" stroke-linejoin="round"/>
<path d="M23.9999 23.357C26.5246 23.357 28.5713 21.3103 28.5713 18.7855C28.5713 16.2608 26.5246 14.2141 23.9999 14.2141C21.4752 14.2141 19.4285 16.2608 19.4285 18.7855C19.4285 21.3103 21.4752 23.357 23.9999 23.357Z" stroke="#00A588" stroke-width="3" stroke-linecap="round" stroke-linejoin="round"/>
</svg>
