<svg width="40" height="40" viewBox="0 0 40 40" fill="none" xmlns="http://www.w3.org/2000/svg">
<path d="M17.3813 7.4891L4.41044 29.3598C4.14301 29.8276 4.00151 30.3579 4.00001 30.8981C3.99851 31.4382 4.13707 31.9693 4.40191 32.4386C4.66674 32.9079 5.04861 33.2989 5.50953 33.5729C5.97045 33.8468 6.49436 33.9941 7.02912 34H32.9709C33.5056 33.9941 34.0295 33.8468 34.4905 33.5729C34.9514 33.2989 35.3333 32.9079 35.5981 32.4386C35.8629 31.9693 36.0015 31.4382 36 30.8981C35.9985 30.3579 35.857 29.8276 35.5896 29.3598L22.6187 7.4891C22.3457 7.03453 21.9613 6.65869 21.5026 6.39786C21.0439 6.13703 20.5264 6 20 6C19.4736 6 18.9561 6.13703 18.4974 6.39786C18.0387 6.65869 17.6543 7.03453 17.3813 7.4891V7.4891Z" stroke="black" stroke-width="3" stroke-linecap="round" stroke-linejoin="round"/>
<path d="M20 15V22" stroke="black" stroke-width="3" stroke-linecap="round" stroke-linejoin="round"/>
<path d="M20 28.3333H20.0167" stroke="black" stroke-width="3" stroke-linecap="round" stroke-linejoin="round"/>
</svg>
