<svg width="24" height="24" viewBox="0 0 24 24" fill="none" xmlns="http://www.w3.org/2000/svg">
<path d="M10.4288 4.49347L2.64629 17.6159C2.48583 17.8966 2.40093 18.2148 2.40003 18.5388C2.39913 18.8629 2.48227 19.1816 2.64117 19.4632C2.80007 19.7447 3.02919 19.9794 3.30574 20.1437C3.5823 20.3081 3.89664 20.3964 4.2175 20.4H19.7826C20.1034 20.3964 20.4177 20.3081 20.6943 20.1437C20.9709 19.9794 21.2 19.7447 21.3589 19.4632C21.5178 19.1816 21.6009 18.8629 21.6 18.5388C21.5991 18.2148 21.5142 17.8966 21.3538 17.6159L13.5712 4.49347C13.4074 4.22072 13.1768 3.99522 12.9016 3.83872C12.6264 3.68222 12.3159 3.60001 12 3.60001C11.6842 3.60001 11.3737 3.68222 11.0985 3.83872C10.8233 3.99522 10.5926 4.22072 10.4288 4.49347V4.49347Z" stroke="white" stroke-width="2" stroke-linecap="round" stroke-linejoin="round"/>
<path d="M12 9V13.2" stroke="white" stroke-width="2" stroke-linecap="round" stroke-linejoin="round"/>
<path d="M12 17H12.01" stroke="white" stroke-width="2" stroke-linecap="round" stroke-linejoin="round"/>
</svg>
