<svg width="24" height="24" viewBox="0 0 24 24" fill="none" xmlns="http://www.w3.org/2000/svg">
<path d="M23.5334 23.5334C23.0756 24.0246 22.5236 24.4186 21.9103 24.6919C21.2969 24.9652 20.6349 25.1121 19.9635 25.124C19.2922 25.1358 18.6253 25.0123 18.0027 24.7608C17.3801 24.5094 16.8146 24.1351 16.3398 23.6603C15.865 23.1855 15.4907 22.6199 15.2392 21.9973C14.9877 21.3748 14.8642 20.7079 14.8761 20.0365C14.8879 19.3652 15.0349 18.7031 15.3081 18.0898C15.5814 17.4764 15.9754 16.9244 16.4667 16.4667M29.9 29.9C27.051 32.0717 23.5819 33.2748 20 33.3334C8.33335 33.3334 1.66669 20 1.66669 20C3.73984 16.1365 6.61525 12.761 10.1 10.1L29.9 29.9ZM16.5 7.0667C17.6472 6.79816 18.8218 6.66393 20 6.6667C31.6667 6.6667 38.3334 20 38.3334 20C37.3216 21.8927 36.1151 23.6746 34.7334 25.3167L16.5 7.0667Z" stroke="black" stroke-width="2" stroke-linecap="round" stroke-linejoin="round"/>
<path d="M1.66669 1.66666L38.3334 38.3333" stroke="black" stroke-width="2" stroke-linecap="round" stroke-linejoin="round"/>
</svg>
