<svg width="32" height="32" viewBox="0 0 32 32" fill="none" xmlns="http://www.w3.org/2000/svg">
<path d="M28.2799 21.1868C27.4316 23.1927 26.1049 24.9604 24.4157 26.3352C22.7265 27.71 20.7262 28.65 18.5898 29.0731C16.4534 29.4963 14.2458 29.3896 12.1601 28.7625C10.0744 28.1354 8.17405 27.0069 6.62525 25.4756C5.07644 23.9444 3.92631 22.0571 3.2754 19.9787C2.62449 17.9003 2.49264 15.6941 2.89135 13.5529C3.29007 11.4118 4.20721 9.40094 5.56261 7.69614C6.91801 5.99135 8.6704 4.64453 10.6666 3.77344" stroke="white" stroke-width="3" stroke-linecap="round" stroke-linejoin="round"/>
<path d="M29.3333 16.0001C29.3333 14.2491 28.9885 12.5153 28.3184 10.8976C27.6483 9.27996 26.6662 7.81011 25.4281 6.57199C24.19 5.33388 22.7201 4.35175 21.1024 3.68169C19.4848 3.01162 17.751 2.66675 16 2.66675V16.0001H29.3333Z" stroke="white" stroke-width="3" stroke-linecap="round" stroke-linejoin="round"/>
</svg>
