<svg width="24" height="24" viewBox="0 0 24 24" fill="none" xmlns="http://www.w3.org/2000/svg">
<path d="M16.2 19.8V18C16.2 17.0452 15.8523 16.1295 15.2335 15.4544C14.6146 14.7793 13.7752 14.4 12.9 14.4H6.3C5.42479 14.4 4.58542 14.7793 3.96655 15.4544C3.34768 16.1295 3 17.0452 3 18V19.8" stroke="black" stroke-width="2" stroke-linecap="round" stroke-linejoin="round"/>
<path d="M9.3 10.8C11.1225 10.8 12.6 9.18823 12.6 7.20001C12.6 5.21178 11.1225 3.60001 9.3 3.60001C7.47746 3.60001 6 5.21178 6 7.20001C6 9.18823 7.47746 10.8 9.3 10.8Z" stroke="black" stroke-width="2" stroke-linecap="round" stroke-linejoin="round"/>
<path d="M21 19.8V17.9601C20.9994 17.1448 20.7635 16.3528 20.3291 15.7084C19.8947 15.0641 19.2865 14.6038 18.6 14.4" stroke="black" stroke-width="2" stroke-linecap="round" stroke-linejoin="round"/>
<path d="M15 3.60001C15.6865 3.80467 16.295 4.26956 16.7296 4.92138C17.1641 5.5732 17.4 6.37487 17.4 7.20001C17.4 8.02514 17.1641 8.82681 16.7296 9.47863C16.295 10.1305 15.6865 10.5953 15 10.8" stroke="black" stroke-width="2" stroke-linecap="round" stroke-linejoin="round"/>
</svg>
