<svg width="40" height="40" viewBox="0 0 40 40" fill="none" xmlns="http://www.w3.org/2000/svg">
<path d="M27 33V30C27 28.4087 26.4205 26.8826 25.3891 25.7574C24.3576 24.6321 22.9587 24 21.5 24H10.5C9.04131 24 7.64236 24.6321 6.61091 25.7574C5.57946 26.8826 5 28.4087 5 30V33" stroke="black" stroke-width="3" stroke-linecap="round" stroke-linejoin="round"/>
<path d="M15.5 18C18.5376 18 21 15.3137 21 12C21 8.68629 18.5376 6 15.5 6C12.4624 6 10 8.68629 10 12C10 15.3137 12.4624 18 15.5 18Z" stroke="black" stroke-width="3" stroke-linecap="round" stroke-linejoin="round"/>
<path d="M35 33V29.9336C34.9991 28.5747 34.6058 27.2547 33.8818 26.1807C33.1578 25.1068 32.1442 24.3397 31 24" stroke="black" stroke-width="3" stroke-linecap="round" stroke-linejoin="round"/>
<path d="M25 6C26.1442 6.34111 27.1584 7.11592 27.8826 8.20229C28.6069 9.28865 29 10.6248 29 12C29 13.3752 28.6069 14.7113 27.8826 15.7977C27.1584 16.8841 26.1442 17.6589 25 18" stroke="black" stroke-width="3" stroke-linecap="round" stroke-linejoin="round"/>
</svg>
